<?xml version="1.0" encoding="UTF-8" standalone="no"?>
<!DOCTYPE svg PUBLIC "-//W3C//DTD SVG 1.1//EN"
 "http://www.w3.org/Graphics/SVG/1.1/DTD/svg11.dtd">
<!-- Generated by graphviz version 2.38.0 (20140413.2041)
 -->
<!-- Title: unix Pages: 1 -->
<svg width="807pt" height="332pt"
 viewBox="0.00 0.00 806.89 332.00" xmlns="http://www.w3.org/2000/svg" xmlns:xlink="http://www.w3.org/1999/xlink">
<g id="graph0" class="graph" transform="scale(1 1) rotate(0) translate(4 328)">
<title>unix</title>
<polygon fill="white" stroke="none" points="-4,4 -4,-328 802.886,-328 802.886,4 -4,4"/>
<!-- BUY -->
<g id="node1" class="node"><title>BUY</title>
<ellipse fill="#b2dfee" stroke="#b2dfee" cx="29.2474" cy="-306" rx="29.4969" ry="18"/>
<text text-anchor="middle" x="29.2474" y="-302.3" font-family="Times,serif" font-size="14.00">BUY</text>
</g>
<!-- Product level Route -->
<g id="node2" class="node"><title>Product level Route</title>
<ellipse fill="#b2dfee" stroke="#b2dfee" cx="92.2474" cy="-234" rx="81.4863" ry="18"/>
<text text-anchor="middle" x="92.2474" y="-230.3" font-family="Times,serif" font-size="14.00">Product level Route</text>
</g>
<!-- BUY&#45;&gt;Product level Route -->
<g id="edge1" class="edge"><title>BUY&#45;&gt;Product level Route</title>
<path fill="none" stroke="black" d="M42.9175,-289.811C50.7988,-281.054 60.9005,-269.83 69.9077,-259.822"/>
<polygon fill="black" stroke="black" points="72.7452,-261.901 76.8334,-252.127 67.5421,-257.218 72.7452,-261.901"/>
</g>
<!-- Routes -->
<g id="node7" class="node"><title>Routes</title>
<ellipse fill="#b2dfee" stroke="#b2dfee" cx="285.247" cy="-162" rx="35.194" ry="18"/>
<text text-anchor="middle" x="285.247" y="-158.3" font-family="Times,serif" font-size="14.00">Routes</text>
</g>
<!-- Product level Route&#45;&gt;Routes -->
<g id="edge6" class="edge"><title>Product level Route&#45;&gt;Routes</title>
<path fill="none" stroke="black" d="M132.707,-218.326C166.565,-206.046 214.508,-188.657 247.565,-176.667"/>
<polygon fill="black" stroke="black" points="249.107,-179.831 257.314,-173.131 246.72,-173.251 249.107,-179.831"/>
</g>
<!-- MTO -->
<g id="node3" class="node"><title>MTO</title>
<ellipse fill="#b2dfee" stroke="#b2dfee" cx="107.247" cy="-306" rx="30.5947" ry="18"/>
<text text-anchor="middle" x="107.247" y="-302.3" font-family="Times,serif" font-size="14.00">MTO</text>
</g>
<!-- MTO&#45;&gt;Product level Route -->
<g id="edge2" class="edge"><title>MTO&#45;&gt;Product level Route</title>
<path fill="none" stroke="black" d="M103.616,-288.055C101.946,-280.261 99.9235,-270.822 98.05,-262.079"/>
<polygon fill="black" stroke="black" points="101.467,-261.32 95.9493,-252.275 94.6223,-262.787 101.467,-261.32"/>
</g>
<!-- WH:Receipt in 1 step -->
<g id="node4" class="node"><title>WH:Receipt in 1 step</title>
<ellipse fill="#b2dfee" stroke="#b2dfee" cx="257.247" cy="-306" rx="87.9851" ry="18"/>
<text text-anchor="middle" x="257.247" y="-302.3" font-family="Times,serif" font-size="14.00">WH:Receipt in 1 step</text>
</g>
<!-- Warehouse level Route -->
<g id="node5" class="node"><title>Warehouse level Route</title>
<ellipse fill="#b2dfee" stroke="#b2dfee" cx="285.247" cy="-234" rx="93.6835" ry="18"/>
<text text-anchor="middle" x="285.247" y="-230.3" font-family="Times,serif" font-size="14.00">Warehouse level Route</text>
</g>
<!-- WH:Receipt in 1 step&#45;&gt;Warehouse level Route -->
<g id="edge3" class="edge"><title>WH:Receipt in 1 step&#45;&gt;Warehouse level Route</title>
<path fill="none" stroke="black" d="M264.169,-287.697C267.322,-279.813 271.126,-270.304 274.629,-261.546"/>
<polygon fill="black" stroke="black" points="277.941,-262.689 278.406,-252.104 271.442,-260.089 277.941,-262.689"/>
</g>
<!-- Warehouse level Route&#45;&gt;Routes -->
<g id="edge5" class="edge"><title>Warehouse level Route&#45;&gt;Routes</title>
<path fill="none" stroke="black" d="M285.247,-215.697C285.247,-207.983 285.247,-198.712 285.247,-190.112"/>
<polygon fill="black" stroke="black" points="288.748,-190.104 285.247,-180.104 281.748,-190.104 288.748,-190.104"/>
</g>
<!-- WH:Ship Only -->
<g id="node6" class="node"><title>WH:Ship Only</title>
<ellipse fill="#b2dfee" stroke="#b2dfee" cx="427.247" cy="-306" rx="64.189" ry="18"/>
<text text-anchor="middle" x="427.247" y="-302.3" font-family="Times,serif" font-size="14.00">WH:Ship Only</text>
</g>
<!-- WH:Ship Only&#45;&gt;Warehouse level Route -->
<g id="edge4" class="edge"><title>WH:Ship Only&#45;&gt;Warehouse level Route</title>
<path fill="none" stroke="black" d="M396.785,-289.983C376.3,-279.885 349.045,-266.45 326.605,-255.388"/>
<polygon fill="black" stroke="black" points="328.152,-252.248 317.635,-250.966 325.056,-258.526 328.152,-252.248"/>
</g>
<!-- Procurement rules -->
<g id="node8" class="node"><title>Procurement rules</title>
<ellipse fill="#b2dfee" stroke="#b2dfee" cx="466.247" cy="-90" rx="75.2868" ry="18"/>
<text text-anchor="middle" x="466.247" y="-86.3" font-family="Times,serif" font-size="14.00">Procurement rules</text>
</g>
<!-- Routes&#45;&gt;Procurement rules -->
<g id="edge8" class="edge"><title>Routes&#45;&gt;Procurement rules</title>
<path fill="none" stroke="black" d="M312.345,-150.52C340.35,-139.69 384.632,-122.564 418.522,-109.458"/>
<polygon fill="black" stroke="black" points="420.164,-112.575 428.228,-105.704 417.639,-106.046 420.164,-112.575"/>
</g>
<!-- Procurement order -->
<g id="node9" class="node"><title>Procurement order</title>
<ellipse fill="#b2dfee" stroke="#b2dfee" cx="466.247" cy="-18" rx="77.1866" ry="18"/>
<text text-anchor="middle" x="466.247" y="-14.3" font-family="Times,serif" font-size="14.00">Procurement order</text>
</g>
<!-- Procurement rules&#45;&gt;Procurement order -->
<g id="edge7" class="edge"><title>Procurement rules&#45;&gt;Procurement order</title>
<path fill="none" stroke="black" d="M466.247,-71.6966C466.247,-63.9827 466.247,-54.7125 466.247,-46.1124"/>
<polygon fill="black" stroke="black" points="469.748,-46.1043 466.247,-36.1043 462.748,-46.1044 469.748,-46.1043"/>
</g>
<!-- Buy -->
<g id="node10" class="node"><title>Buy</title>
<ellipse fill="#b2dfee" stroke="#b2dfee" cx="424.247" cy="-234" rx="27" ry="18"/>
<text text-anchor="middle" x="424.247" y="-230.3" font-family="Times,serif" font-size="14.00">Buy</text>
</g>
<!-- Action field -->
<g id="node11" class="node"><title>Action field</title>
<ellipse fill="#b2dfee" stroke="#b2dfee" cx="466.247" cy="-162" rx="53.0913" ry="18"/>
<text text-anchor="middle" x="466.247" y="-158.3" font-family="Times,serif" font-size="14.00">Action field</text>
</g>
<!-- Buy&#45;&gt;Action field -->
<g id="edge9" class="edge"><title>Buy&#45;&gt;Action field</title>
<path fill="none" stroke="black" d="M433.778,-217.116C438.84,-208.679 445.185,-198.104 450.919,-188.547"/>
<polygon fill="black" stroke="black" points="454.025,-190.173 456.169,-179.797 448.023,-186.572 454.025,-190.173"/>
</g>
<!-- Action field&#45;&gt;Procurement rules -->
<g id="edge12" class="edge"><title>Action field&#45;&gt;Procurement rules</title>
<path fill="none" stroke="black" d="M466.247,-143.697C466.247,-135.983 466.247,-126.712 466.247,-118.112"/>
<polygon fill="black" stroke="black" points="469.748,-118.104 466.247,-108.104 462.748,-118.104 469.748,-118.104"/>
</g>
<!-- Produce -->
<g id="node12" class="node"><title>Produce</title>
<ellipse fill="#b2dfee" stroke="#b2dfee" cx="509.247" cy="-234" rx="39.7935" ry="18"/>
<text text-anchor="middle" x="509.247" y="-230.3" font-family="Times,serif" font-size="14.00">Produce</text>
</g>
<!-- Produce&#45;&gt;Action field -->
<g id="edge10" class="edge"><title>Produce&#45;&gt;Action field</title>
<path fill="none" stroke="black" d="M499.057,-216.411C493.938,-208.077 487.623,-197.797 481.905,-188.488"/>
<polygon fill="black" stroke="black" points="484.88,-186.645 476.663,-179.956 478.915,-190.309 484.88,-186.645"/>
</g>
<!-- Move from another location -->
<g id="node13" class="node"><title>Move from another location</title>
<ellipse fill="#b2dfee" stroke="#b2dfee" cx="678.247" cy="-234" rx="111.28" ry="18"/>
<text text-anchor="middle" x="678.247" y="-230.3" font-family="Times,serif" font-size="14.00">Move from another location</text>
</g>
<!-- Move from another location&#45;&gt;Action field -->
<g id="edge11" class="edge"><title>Move from another location&#45;&gt;Action field</title>
<path fill="none" stroke="black" d="M631.723,-217.638C596.406,-205.977 548.064,-190.015 512.752,-178.355"/>
<polygon fill="black" stroke="black" points="513.752,-175 503.159,-175.188 511.557,-181.647 513.752,-175"/>
</g>
<!-- Procurement Stock Location field -->
<g id="node14" class="node"><title>Procurement Stock Location field</title>
<ellipse fill="#b2dfee" stroke="#b2dfee" cx="668.247" cy="-162" rx="130.777" ry="18"/>
<text text-anchor="middle" x="668.247" y="-158.3" font-family="Times,serif" font-size="14.00">Procurement Stock Location field</text>
</g>
<!-- Procurement Stock Location field&#45;&gt;Procurement rules -->
<g id="edge13" class="edge"><title>Procurement Stock Location field&#45;&gt;Procurement rules</title>
<path fill="none" stroke="black" d="M622.41,-145.116C590.974,-134.222 549.253,-119.764 516.844,-108.533"/>
<polygon fill="black" stroke="black" points="517.701,-105.126 507.106,-105.159 515.409,-111.74 517.701,-105.126"/>
</g>
</g>
</svg>
