<?xml version="1.0" encoding="UTF-8" standalone="no"?>
<!DOCTYPE svg PUBLIC "-//W3C//DTD SVG 1.1//EN"
 "http://www.w3.org/Graphics/SVG/1.1/DTD/svg11.dtd">
<!-- Generated by graphviz version 2.38.0 (20140413.2041)
 -->
<!-- Title: agr Pages: 1 -->
<svg width="452pt" height="493pt"
 viewBox="0.00 0.00 452.06 492.70" xmlns="http://www.w3.org/2000/svg" xmlns:xlink="http://www.w3.org/1999/xlink">
<g id="graph0" class="graph" transform="scale(1 1) rotate(0) translate(4 488.701)">
<title>agr</title>
<polygon fill="white" stroke="none" points="-4,4 -4,-488.701 448.063,-488.701 448.063,4 -4,4"/>
<!-- so_confirm -->
<g id="node1" class="node"><title>so_confirm</title>
<ellipse fill="none" stroke="black" cx="222.032" cy="-457.831" rx="89.6056" ry="26.7407"/>
<text text-anchor="middle" x="222.032" y="-461.631" font-family="Times,serif" font-size="14.00">action_ship_create()</text>
<text text-anchor="middle" x="222.032" y="-446.631" font-family="Times,serif" font-size="14.00"> sale_order.py:698</text>
</g>
<!-- prep_proc -->
<g id="node2" class="node"><title>prep_proc</title>
<ellipse fill="none" stroke="black" cx="222.032" cy="-368.09" rx="149.399" ry="26.7407"/>
<text text-anchor="middle" x="222.032" y="-371.89" font-family="Times,serif" font-size="14.00">_prepare_order_line_procurement()</text>
<text text-anchor="middle" x="222.032" y="-356.89" font-family="Times,serif" font-size="14.00"> sale_stock.py:75</text>
</g>
<!-- so_confirm&#45;&gt;prep_proc -->
<g id="edge1" class="edge"><title>so_confirm&#45;&gt;prep_proc</title>
<path fill="none" stroke="black" d="M222.032,-430.506C222.032,-422.539 222.032,-413.648 222.032,-405.159"/>
<polygon fill="black" stroke="black" points="225.532,-405.094 222.032,-395.094 218.532,-405.094 225.532,-405.094"/>
</g>
<!-- loc_prep_proc -->
<g id="node3" class="node"><title>loc_prep_proc</title>
<ellipse fill="none" stroke="black" cx="222.032" cy="-278.35" rx="222.063" ry="26.7407"/>
<text text-anchor="middle" x="222.032" y="-282.15" font-family="Times,serif" font-size="14.00">location_id=</text>
<text text-anchor="middle" x="222.032" y="-267.15" font-family="Times,serif" font-size="14.00">order.partner_shipping_id.property_stock_customer.id</text>
</g>
<!-- prep_proc&#45;&gt;loc_prep_proc -->
<g id="edge2" class="edge"><title>prep_proc&#45;&gt;loc_prep_proc</title>
<path fill="none" stroke="black" d="M222.032,-340.765C222.032,-332.799 222.032,-323.908 222.032,-315.419"/>
<polygon fill="black" stroke="black" points="225.532,-315.354 222.032,-305.354 218.532,-315.354 225.532,-315.354"/>
</g>
<!-- procure_order_jit -->
<g id="node4" class="node"><title>procure_order_jit</title>
<ellipse fill="none" stroke="black" cx="222.032" cy="-188.61" rx="97.6615" ry="26.7407"/>
<text text-anchor="middle" x="222.032" y="-192.41" font-family="Times,serif" font-size="14.00">create()</text>
<text text-anchor="middle" x="222.032" y="-177.41" font-family="Times,serif" font-size="14.00">procurement_jit.py:30</text>
</g>
<!-- loc_prep_proc&#45;&gt;procure_order_jit -->
<g id="edge3" class="edge"><title>loc_prep_proc&#45;&gt;procure_order_jit</title>
<path fill="none" stroke="black" d="M222.032,-251.025C222.032,-243.059 222.032,-234.168 222.032,-225.679"/>
<polygon fill="black" stroke="black" points="225.532,-225.614 222.032,-215.614 218.532,-225.614 225.532,-225.614"/>
</g>
<!-- assign_rule -->
<g id="node5" class="node"><title>assign_rule</title>
<ellipse fill="none" stroke="black" cx="222.032" cy="-98.8701" rx="166.34" ry="26.7407"/>
<text text-anchor="middle" x="222.032" y="-102.67" font-family="Times,serif" font-size="14.00">_find_suitable_rule()</text>
<text text-anchor="middle" x="222.032" y="-87.6701" font-family="Times,serif" font-size="14.00">procurement/procurement_order.py:143</text>
</g>
<!-- procure_order_jit&#45;&gt;assign_rule -->
<g id="edge4" class="edge"><title>procure_order_jit&#45;&gt;assign_rule</title>
<path fill="none" stroke="black" d="M222.032,-161.285C222.032,-153.319 222.032,-144.428 222.032,-135.939"/>
<polygon fill="black" stroke="black" points="225.532,-135.874 222.032,-125.874 218.532,-135.874 225.532,-135.874"/>
</g>
<!-- procurement order in running status -->
<g id="node6" class="node"><title>procurement order in running status</title>
<ellipse fill="none" stroke="black" cx="222.032" cy="-18" rx="137.576" ry="18"/>
<text text-anchor="middle" x="222.032" y="-14.3" font-family="Times,serif" font-size="14.00">procurement order in running status</text>
</g>
<!-- assign_rule&#45;&gt;procurement order in running status -->
<g id="edge5" class="edge"><title>assign_rule&#45;&gt;procurement order in running status</title>
<path fill="none" stroke="black" d="M222.032,-71.6075C222.032,-63.5064 222.032,-54.5675 222.032,-46.3924"/>
<polygon fill="black" stroke="black" points="225.532,-46.22 222.032,-36.22 218.532,-46.2201 225.532,-46.22"/>
</g>
</g>
</svg>
