<?xml version="1.0" encoding="UTF-8" standalone="no"?>
<!DOCTYPE svg PUBLIC "-//W3C//DTD SVG 1.1//EN"
 "http://www.w3.org/Graphics/SVG/1.1/DTD/svg11.dtd">
<!-- Generated by graphviz version 2.38.0 (20140413.2041)
 -->
<!-- Title: account_account Pages: 1 -->
<svg width="432pt" height="80pt"
 viewBox="0.00 0.00 432.00 79.62" xmlns="http://www.w3.org/2000/svg" xmlns:xlink="http://www.w3.org/1999/xlink">
<g id="graph0" class="graph" transform="scale(0.197091 0.197091) rotate(0) translate(4 400)">
<title>account_account</title>
<polygon fill="white" stroke="none" points="-4,4 -4,-400 2187.88,-400 2187.88,4 -4,4"/>
<!-- 100000 Fixed Asset Account -->
<g id="node1" class="node"><title>100000 Fixed Asset Account</title>
<ellipse fill="#b2dfee" stroke="#b2dfee" cx="920.491" cy="-234" rx="113.98" ry="18"/>
<text text-anchor="middle" x="920.491" y="-230.3" font-family="Times,serif" font-size="14.00">100000 Fixed Asset Account</text>
</g>
<!-- 10 Fixed Assets -->
<g id="node2" class="node"><title>10 Fixed Assets</title>
<ellipse fill="#b2dfee" stroke="#b2dfee" cx="929.491" cy="-162" rx="67.6881" ry="18"/>
<text text-anchor="middle" x="929.491" y="-158.3" font-family="Times,serif" font-size="14.00">10 Fixed Assets</text>
</g>
<!-- 100000 Fixed Asset Account&#45;&gt;10 Fixed Assets -->
<g id="edge1" class="edge"><title>100000 Fixed Asset Account&#45;&gt;10 Fixed Assets</title>
<path fill="none" stroke="black" d="M922.716,-215.697C923.708,-207.983 924.9,-198.712 926.005,-190.112"/>
<polygon fill="black" stroke="black" points="929.488,-190.469 927.292,-180.104 922.545,-189.576 929.488,-190.469"/>
</g>
<!-- 1 Balance Sheet -->
<g id="node3" class="node"><title>1 Balance Sheet</title>
<ellipse fill="#b2dfee" stroke="#b2dfee" cx="1025.49" cy="-90" rx="67.6881" ry="18"/>
<text text-anchor="middle" x="1025.49" y="-86.3" font-family="Times,serif" font-size="14.00">1 Balance Sheet</text>
</g>
<!-- 10 Fixed Assets&#45;&gt;1 Balance Sheet -->
<g id="edge2" class="edge"><title>10 Fixed Assets&#45;&gt;1 Balance Sheet</title>
<path fill="none" stroke="black" d="M951.757,-144.765C964.6,-135.4 980.934,-123.49 994.962,-113.261"/>
<polygon fill="black" stroke="black" points="997.328,-115.867 1003.35,-107.147 993.204,-110.211 997.328,-115.867"/>
</g>
<!-- 0 Your Company -->
<g id="node18" class="node"><title>0 Your Company</title>
<ellipse fill="#b2dfee" stroke="#b2dfee" cx="847.491" cy="-18" rx="72.5877" ry="18"/>
<text text-anchor="middle" x="847.491" y="-14.3" font-family="Times,serif" font-size="14.00">0 Your Company</text>
</g>
<!-- 1 Balance Sheet&#45;&gt;0 Your Company -->
<g id="edge17" class="edge"><title>1 Balance Sheet&#45;&gt;0 Your Company</title>
<path fill="none" stroke="black" d="M989.041,-74.6655C961.507,-63.8377 923.52,-48.8988 893.829,-37.2228"/>
<polygon fill="black" stroke="black" points="895.092,-33.9585 884.505,-33.5558 892.53,-40.4729 895.092,-33.9585"/>
</g>
<!-- 110100 Purchased Stocks -->
<g id="node4" class="node"><title>110100 Purchased Stocks</title>
<ellipse fill="#b2dfee" stroke="#b2dfee" cx="786.491" cy="-306" rx="101.282" ry="18"/>
<text text-anchor="middle" x="786.491" y="-302.3" font-family="Times,serif" font-size="14.00">110100 Purchased Stocks</text>
</g>
<!-- 110 Current Assets -->
<g id="node5" class="node"><title>110 Current Assets</title>
<ellipse fill="#b2dfee" stroke="#b2dfee" cx="1130.49" cy="-234" rx="78.7863" ry="18"/>
<text text-anchor="middle" x="1130.49" y="-230.3" font-family="Times,serif" font-size="14.00">110 Current Assets</text>
</g>
<!-- 110100 Purchased Stocks&#45;&gt;110 Current Assets -->
<g id="edge3" class="edge"><title>110100 Purchased Stocks&#45;&gt;110 Current Assets</title>
<path fill="none" stroke="black" d="M850.389,-291.998C911.127,-279.638 1002.11,-261.124 1063.77,-248.578"/>
<polygon fill="black" stroke="black" points="1064.68,-251.964 1073.78,-246.54 1063.28,-245.104 1064.68,-251.964"/>
</g>
<!-- 11 Net Current Assets -->
<g id="node12" class="node"><title>11 Net Current Assets</title>
<ellipse fill="#b2dfee" stroke="#b2dfee" cx="1121.49" cy="-162" rx="89.0842" ry="18"/>
<text text-anchor="middle" x="1121.49" y="-158.3" font-family="Times,serif" font-size="14.00">11 Net Current Assets</text>
</g>
<!-- 110 Current Assets&#45;&gt;11 Net Current Assets -->
<g id="edge10" class="edge"><title>110 Current Assets&#45;&gt;11 Net Current Assets</title>
<path fill="none" stroke="black" d="M1128.27,-215.697C1127.27,-207.983 1126.08,-198.712 1124.98,-190.112"/>
<polygon fill="black" stroke="black" points="1128.44,-189.576 1123.69,-180.104 1121.49,-190.469 1128.44,-189.576"/>
</g>
<!-- 110200 Debtors -->
<g id="node6" class="node"><title>110200 Debtors</title>
<ellipse fill="#b2dfee" stroke="#b2dfee" cx="973.491" cy="-306" rx="67.6881" ry="18"/>
<text text-anchor="middle" x="973.491" y="-302.3" font-family="Times,serif" font-size="14.00">110200 Debtors</text>
</g>
<!-- 110200 Debtors&#45;&gt;110 Current Assets -->
<g id="edge4" class="edge"><title>110200 Debtors&#45;&gt;110 Current Assets</title>
<path fill="none" stroke="black" d="M1006.79,-290.155C1030.09,-279.764 1061.46,-265.777 1086.78,-254.489"/>
<polygon fill="black" stroke="black" points="1088.45,-257.577 1096.16,-250.308 1085.6,-251.183 1088.45,-257.577"/>
</g>
<!-- 110300 Tax Paid -->
<g id="node7" class="node"><title>110300 Tax Paid</title>
<ellipse fill="#b2dfee" stroke="#b2dfee" cx="1130.49" cy="-306" rx="71.4873" ry="18"/>
<text text-anchor="middle" x="1130.49" y="-302.3" font-family="Times,serif" font-size="14.00">110300 Tax Paid</text>
</g>
<!-- 110300 Tax Paid&#45;&gt;110 Current Assets -->
<g id="edge5" class="edge"><title>110300 Tax Paid&#45;&gt;110 Current Assets</title>
<path fill="none" stroke="black" d="M1130.49,-287.697C1130.49,-279.983 1130.49,-270.712 1130.49,-262.112"/>
<polygon fill="black" stroke="black" points="1133.99,-262.104 1130.49,-252.104 1126.99,-262.104 1133.99,-262.104"/>
</g>
<!-- 110401 Cash -->
<g id="node8" class="node"><title>110401 Cash</title>
<ellipse fill="#b2dfee" stroke="#b2dfee" cx="1263.49" cy="-378" rx="57.3905" ry="18"/>
<text text-anchor="middle" x="1263.49" y="-374.3" font-family="Times,serif" font-size="14.00">110401 Cash</text>
</g>
<!-- 1104 Bank Current Account -->
<g id="node9" class="node"><title>1104 Bank Current Account</title>
<ellipse fill="#b2dfee" stroke="#b2dfee" cx="1330.49" cy="-306" rx="110.48" ry="18"/>
<text text-anchor="middle" x="1330.49" y="-302.3" font-family="Times,serif" font-size="14.00">1104 Bank Current Account</text>
</g>
<!-- 110401 Cash&#45;&gt;1104 Bank Current Account -->
<g id="edge6" class="edge"><title>110401 Cash&#45;&gt;1104 Bank Current Account</title>
<path fill="none" stroke="black" d="M1279.37,-360.411C1287.67,-351.734 1298,-340.946 1307.19,-331.342"/>
<polygon fill="black" stroke="black" points="1309.88,-333.601 1314.26,-323.956 1304.82,-328.76 1309.88,-333.601"/>
</g>
<!-- 1104 Bank Current Account&#45;&gt;110 Current Assets -->
<g id="edge8" class="edge"><title>1104 Bank Current Account&#45;&gt;110 Current Assets</title>
<path fill="none" stroke="black" d="M1286.1,-289.465C1255.13,-278.624 1213.72,-264.129 1181.4,-252.818"/>
<polygon fill="black" stroke="black" points="1182.28,-249.418 1171.69,-249.418 1179.97,-256.025 1182.28,-249.418"/>
</g>
<!-- 110402 Bank -->
<g id="node10" class="node"><title>110402 Bank</title>
<ellipse fill="#b2dfee" stroke="#b2dfee" cx="1396.49" cy="-378" rx="57.6901" ry="18"/>
<text text-anchor="middle" x="1396.49" y="-374.3" font-family="Times,serif" font-size="14.00">110402 Bank</text>
</g>
<!-- 110402 Bank&#45;&gt;1104 Bank Current Account -->
<g id="edge7" class="edge"><title>110402 Bank&#45;&gt;1104 Bank Current Account</title>
<path fill="none" stroke="black" d="M1380.85,-360.411C1372.67,-351.734 1362.5,-340.946 1353.44,-331.342"/>
<polygon fill="black" stroke="black" points="1355.89,-328.831 1346.48,-323.956 1350.79,-333.633 1355.89,-328.831"/>
</g>
<!-- 110600 Opening Income Account -->
<g id="node11" class="node"><title>110600 Opening Income Account</title>
<ellipse fill="#b2dfee" stroke="#b2dfee" cx="1590.49" cy="-306" rx="131.077" ry="18"/>
<text text-anchor="middle" x="1590.49" y="-302.3" font-family="Times,serif" font-size="14.00">110600 Opening Income Account</text>
</g>
<!-- 110600 Opening Income Account&#45;&gt;110 Current Assets -->
<g id="edge9" class="edge"><title>110600 Opening Income Account&#45;&gt;110 Current Assets</title>
<path fill="none" stroke="black" d="M1497.93,-293.204C1422.33,-283.244 1312.79,-268.069 1217.49,-252 1210.97,-250.9 1204.18,-249.689 1197.4,-248.437"/>
<polygon fill="black" stroke="black" points="1197.98,-244.985 1187.51,-246.58 1196.69,-251.865 1197.98,-244.985"/>
</g>
<!-- 11 Net Current Assets&#45;&gt;1 Balance Sheet -->
<g id="edge11" class="edge"><title>11 Net Current Assets&#45;&gt;1 Balance Sheet</title>
<path fill="none" stroke="black" d="M1098.74,-144.411C1085.98,-135.103 1069.88,-123.367 1056.03,-113.268"/>
<polygon fill="black" stroke="black" points="1057.89,-110.292 1047.75,-107.228 1053.77,-115.948 1057.89,-110.292"/>
</g>
<!-- 120000 Creditors -->
<g id="node13" class="node"><title>120000 Creditors</title>
<ellipse fill="#b2dfee" stroke="#b2dfee" cx="1916.49" cy="-234" rx="72.2875" ry="18"/>
<text text-anchor="middle" x="1916.49" y="-230.3" font-family="Times,serif" font-size="14.00">120000 Creditors</text>
</g>
<!-- 12 Current Liabilities -->
<g id="node14" class="node"><title>12 Current Liabilities</title>
<ellipse fill="#b2dfee" stroke="#b2dfee" cx="1692.49" cy="-162" rx="87.1846" ry="18"/>
<text text-anchor="middle" x="1692.49" y="-158.3" font-family="Times,serif" font-size="14.00">12 Current Liabilities</text>
</g>
<!-- 120000 Creditors&#45;&gt;12 Current Liabilities -->
<g id="edge12" class="edge"><title>120000 Creditors&#45;&gt;12 Current Liabilities</title>
<path fill="none" stroke="black" d="M1873.3,-219.503C1837.67,-208.369 1786.88,-192.495 1748.19,-180.406"/>
<polygon fill="black" stroke="black" points="1749.22,-177.061 1738.63,-177.419 1747.13,-183.743 1749.22,-177.061"/>
</g>
<!-- 12 Current Liabilities&#45;&gt;1 Balance Sheet -->
<g id="edge16" class="edge"><title>12 Current Liabilities&#45;&gt;1 Balance Sheet</title>
<path fill="none" stroke="black" d="M1616.63,-153.038C1486.81,-139.414 1223.82,-111.814 1097.03,-98.5077"/>
<polygon fill="black" stroke="black" points="1097.34,-95.0216 1087.03,-97.4587 1096.61,-101.983 1097.34,-95.0216"/>
</g>
<!-- 121000 Tax Received -->
<g id="node15" class="node"><title>121000 Tax Received</title>
<ellipse fill="#b2dfee" stroke="#b2dfee" cx="2095.49" cy="-234" rx="88.2844" ry="18"/>
<text text-anchor="middle" x="2095.49" y="-230.3" font-family="Times,serif" font-size="14.00">121000 Tax Received</text>
</g>
<!-- 121000 Tax Received&#45;&gt;12 Current Liabilities -->
<g id="edge13" class="edge"><title>121000 Tax Received&#45;&gt;12 Current Liabilities</title>
<path fill="none" stroke="black" d="M2030.29,-221.675C1958.23,-209.159 1842.39,-189.037 1766.85,-175.916"/>
<polygon fill="black" stroke="black" points="1767.38,-172.455 1756.93,-174.192 1766.18,-179.352 1767.38,-172.455"/>
</g>
<!-- 122000 Reserve and Profit/Loss Account -->
<g id="node16" class="node"><title>122000 Reserve and Profit/Loss Account</title>
<ellipse fill="#b2dfee" stroke="#b2dfee" cx="1383.49" cy="-234" rx="156.772" ry="18"/>
<text text-anchor="middle" x="1383.49" y="-230.3" font-family="Times,serif" font-size="14.00">122000 Reserve and Profit/Loss Account</text>
</g>
<!-- 122000 Reserve and Profit/Loss Account&#45;&gt;12 Current Liabilities -->
<g id="edge14" class="edge"><title>122000 Reserve and Profit/Loss Account&#45;&gt;12 Current Liabilities</title>
<path fill="none" stroke="black" d="M1450.92,-217.725C1502.86,-205.958 1574.3,-189.775 1626,-178.062"/>
<polygon fill="black" stroke="black" points="1627.09,-181.405 1636.07,-175.782 1625.54,-174.578 1627.09,-181.405"/>
</g>
<!-- 123000 Opening Expense Account -->
<g id="node17" class="node"><title>123000 Opening Expense Account</title>
<ellipse fill="#b2dfee" stroke="#b2dfee" cx="1692.49" cy="-234" rx="133.776" ry="18"/>
<text text-anchor="middle" x="1692.49" y="-230.3" font-family="Times,serif" font-size="14.00">123000 Opening Expense Account</text>
</g>
<!-- 123000 Opening Expense Account&#45;&gt;12 Current Liabilities -->
<g id="edge15" class="edge"><title>123000 Opening Expense Account&#45;&gt;12 Current Liabilities</title>
<path fill="none" stroke="black" d="M1692.49,-215.697C1692.49,-207.983 1692.49,-198.712 1692.49,-190.112"/>
<polygon fill="black" stroke="black" points="1695.99,-190.104 1692.49,-180.104 1688.99,-190.104 1695.99,-190.104"/>
</g>
<!-- 200000 Product Sales -->
<g id="node19" class="node"><title>200000 Product Sales</title>
<ellipse fill="#b2dfee" stroke="#b2dfee" cx="464.491" cy="-234" rx="87.9851" ry="18"/>
<text text-anchor="middle" x="464.491" y="-230.3" font-family="Times,serif" font-size="14.00">200000 Product Sales</text>
</g>
<!-- 20 Revenue -->
<g id="node20" class="node"><title>20 Revenue</title>
<ellipse fill="#b2dfee" stroke="#b2dfee" cx="501.491" cy="-162" rx="52.7911" ry="18"/>
<text text-anchor="middle" x="501.491" y="-158.3" font-family="Times,serif" font-size="14.00">20 Revenue</text>
</g>
<!-- 200000 Product Sales&#45;&gt;20 Revenue -->
<g id="edge18" class="edge"><title>200000 Product Sales&#45;&gt;20 Revenue</title>
<path fill="none" stroke="black" d="M473.448,-216.055C477.766,-207.887 483.038,-197.912 487.841,-188.824"/>
<polygon fill="black" stroke="black" points="491.038,-190.266 492.617,-179.789 484.85,-186.994 491.038,-190.266"/>
</g>
<!-- 2 Profit and Loss -->
<g id="node21" class="node"><title>2 Profit and Loss</title>
<ellipse fill="#b2dfee" stroke="#b2dfee" cx="590.491" cy="-90" rx="71.4873" ry="18"/>
<text text-anchor="middle" x="590.491" y="-86.3" font-family="Times,serif" font-size="14.00">2 Profit and Loss</text>
</g>
<!-- 20 Revenue&#45;&gt;2 Profit and Loss -->
<g id="edge19" class="edge"><title>20 Revenue&#45;&gt;2 Profit and Loss</title>
<path fill="none" stroke="black" d="M521.687,-145.116C533.467,-135.851 548.524,-124.008 561.548,-113.764"/>
<polygon fill="black" stroke="black" points="564.062,-116.24 569.758,-107.307 559.734,-110.738 564.062,-116.24"/>
</g>
<!-- 2 Profit and Loss&#45;&gt;0 Your Company -->
<g id="edge25" class="edge"><title>2 Profit and Loss&#45;&gt;0 Your Company</title>
<path fill="none" stroke="black" d="M637.032,-76.3235C680.156,-64.5778 744.415,-47.0754 790.575,-34.5025"/>
<polygon fill="black" stroke="black" points="791.7,-37.8238 800.428,-31.8187 789.86,-31.0698 791.7,-37.8238"/>
</g>
<!-- 210000 Cost of Goods Sold -->
<g id="node22" class="node"><title>210000 Cost of Goods Sold</title>
<ellipse fill="#b2dfee" stroke="#b2dfee" cx="679.491" cy="-234" rx="109.381" ry="18"/>
<text text-anchor="middle" x="679.491" y="-230.3" font-family="Times,serif" font-size="14.00">210000 Cost of Goods Sold</text>
</g>
<!-- 21 Cost of Sales -->
<g id="node23" class="node"><title>21 Cost of Sales</title>
<ellipse fill="#b2dfee" stroke="#b2dfee" cx="660.491" cy="-162" rx="68.7879" ry="18"/>
<text text-anchor="middle" x="660.491" y="-158.3" font-family="Times,serif" font-size="14.00">21 Cost of Sales</text>
</g>
<!-- 210000 Cost of Goods Sold&#45;&gt;21 Cost of Sales -->
<g id="edge20" class="edge"><title>210000 Cost of Goods Sold&#45;&gt;21 Cost of Sales</title>
<path fill="none" stroke="black" d="M674.795,-215.697C672.678,-207.898 670.129,-198.509 667.774,-189.829"/>
<polygon fill="black" stroke="black" points="671.131,-188.838 665.134,-180.104 664.376,-190.672 671.131,-188.838"/>
</g>
<!-- 21 Cost of Sales&#45;&gt;2 Profit and Loss -->
<g id="edge21" class="edge"><title>21 Cost of Sales&#45;&gt;2 Profit and Loss</title>
<path fill="none" stroke="black" d="M643.902,-144.411C635.139,-135.648 624.224,-124.732 614.548,-115.057"/>
<polygon fill="black" stroke="black" points="616.994,-112.552 607.448,-107.956 612.044,-117.502 616.994,-112.552"/>
</g>
<!-- 220000 Expenses -->
<g id="node24" class="node"><title>220000 Expenses</title>
<ellipse fill="#b2dfee" stroke="#b2dfee" cx="285.491" cy="-234" rx="72.5877" ry="18"/>
<text text-anchor="middle" x="285.491" y="-230.3" font-family="Times,serif" font-size="14.00">220000 Expenses</text>
</g>
<!-- 22 Overheads -->
<g id="node25" class="node"><title>22 Overheads</title>
<ellipse fill="#b2dfee" stroke="#b2dfee" cx="285.491" cy="-162" rx="59.5901" ry="18"/>
<text text-anchor="middle" x="285.491" y="-158.3" font-family="Times,serif" font-size="14.00">22 Overheads</text>
</g>
<!-- 220000 Expenses&#45;&gt;22 Overheads -->
<g id="edge22" class="edge"><title>220000 Expenses&#45;&gt;22 Overheads</title>
<path fill="none" stroke="black" d="M285.491,-215.697C285.491,-207.983 285.491,-198.712 285.491,-190.112"/>
<polygon fill="black" stroke="black" points="288.991,-190.104 285.491,-180.104 281.991,-190.104 288.991,-190.104"/>
</g>
<!-- 22 Overheads&#45;&gt;2 Profit and Loss -->
<g id="edge24" class="edge"><title>22 Overheads&#45;&gt;2 Profit and Loss</title>
<path fill="none" stroke="black" d="M331.483,-150.445C384.341,-138.313 471.296,-118.356 529.7,-104.952"/>
<polygon fill="black" stroke="black" points="530.574,-108.343 539.538,-102.694 529.008,-101.52 530.574,-108.343"/>
</g>
<!-- 221000 Salary Expenses -->
<g id="node26" class="node"><title>221000 Salary Expenses</title>
<ellipse fill="#b2dfee" stroke="#b2dfee" cx="97.4913" cy="-234" rx="97.4827" ry="18"/>
<text text-anchor="middle" x="97.4913" y="-230.3" font-family="Times,serif" font-size="14.00">221000 Salary Expenses</text>
</g>
<!-- 221000 Salary Expenses&#45;&gt;22 Overheads -->
<g id="edge23" class="edge"><title>221000 Salary Expenses&#45;&gt;22 Overheads</title>
<path fill="none" stroke="black" d="M138.749,-217.638C168.594,-206.526 208.926,-191.508 239.755,-180.03"/>
<polygon fill="black" stroke="black" points="241.255,-183.206 249.405,-176.437 238.812,-176.646 241.255,-183.206"/>
</g>
</g>
</svg>
