<?xml version="1.0" encoding="UTF-8" standalone="no"?>
<!DOCTYPE svg PUBLIC "-//W3C//DTD SVG 1.1//EN"
 "http://www.w3.org/Graphics/SVG/1.1/DTD/svg11.dtd">
<!-- Generated by graphviz version 2.38.0 (20140413.2041)
 -->
<!-- Title: g Pages: 1 -->
<svg width="96pt" height="188pt"
 viewBox="0.00 0.00 96.14 188.00" xmlns="http://www.w3.org/2000/svg" xmlns:xlink="http://www.w3.org/1999/xlink">
<g id="graph0" class="graph" transform="scale(1 1) rotate(0) translate(4 184)">
<title>g</title>
<polygon fill="white" stroke="none" points="-4,4 -4,-184 92.1448,-184 92.1448,4 -4,4"/>
<!-- barn -->
<g id="node1" class="node"><title>barn</title>
<ellipse fill="none" stroke="black" cx="60.1972" cy="-162" rx="27" ry="18"/>
<text text-anchor="middle" x="60.1972" y="-158.3" font-family="Times,serif" font-size="14.00">barn</text>
</g>
<!-- house -->
<g id="node2" class="node"><title>house</title>
<ellipse fill="none" stroke="black" cx="31.1972" cy="-90" rx="31.3957" ry="18"/>
<text text-anchor="middle" x="31.1972" y="-86.3" font-family="Times,serif" font-size="14.00">house</text>
</g>
<!-- barn&#45;&gt;house -->
<g id="edge1" class="edge"><title>barn&#45;&gt;house</title>
<path fill="none" stroke="red" d="M53.3246,-144.411C49.9789,-136.335 45.8759,-126.431 42.1156,-117.355"/>
<polygon fill="red" stroke="red" points="45.2829,-115.855 38.2219,-107.956 38.8159,-118.534 45.2829,-115.855"/>
</g>
<!-- farm -->
<g id="node3" class="node"><title>farm</title>
<ellipse fill="none" stroke="black" cx="60.1972" cy="-18" rx="27.8951" ry="18"/>
<text text-anchor="middle" x="60.1972" y="-14.3" font-family="Times,serif" font-size="14.00">farm</text>
</g>
<!-- barn&#45;&gt;farm -->
<g id="edge2" class="edge"><title>barn&#45;&gt;farm</title>
<path fill="none" stroke="green" d="M64.6615,-143.953C67.1323,-133.63 69.9494,-120.153 71.1972,-108 72.8315,-92.0837 72.8315,-87.9163 71.1972,-72 70.3198,-63.455 68.6666,-54.2552 66.9035,-45.9576"/>
<polygon fill="green" stroke="green" points="70.2817,-45.0282 64.6615,-36.0469 63.4543,-46.5728 70.2817,-45.0282"/>
</g>
<!-- house&#45;&gt;farm -->
<g id="edge3" class="edge"><title>house&#45;&gt;farm</title>
<path fill="none" stroke="green" d="M38.0698,-72.411C41.4647,-64.2164 45.6394,-54.1395 49.4445,-44.9548"/>
<polygon fill="green" stroke="green" points="52.78,-46.0481 53.374,-35.4699 46.313,-43.3689 52.78,-46.0481"/>
</g>
</g>
</svg>
